<svg width="40" height="40" viewBox="0 0 40 40" fill="none" xmlns="http://www.w3.org/2000/svg">
<path d="M29.375 13.75C28.7262 13.7491 28.0854 13.8938 27.5 14.1734V9.37501C27.4998 8.61684 27.3026 7.87174 26.9277 7.21276C26.5528 6.55377 26.0131 6.00352 25.3615 5.61595C24.7098 5.22839 23.9687 5.01681 23.2107 5.00196C22.4527 4.98711 21.7038 5.16951 21.0375 5.53126C20.7167 4.53998 20.0527 3.69572 19.165 3.15037C18.2772 2.60502 17.224 2.3944 16.1948 2.55639C15.1656 2.71838 14.2279 3.24235 13.5506 4.03403C12.8733 4.82572 12.5008 5.83313 12.5 6.87501V7.92345C11.9146 7.64379 11.2738 7.49909 10.625 7.50001C9.46468 7.50001 8.35188 7.96094 7.53141 8.78142C6.71094 9.60189 6.25 10.7147 6.25 11.875V23.75C6.25 27.3967 7.69866 30.8941 10.2773 33.4727C12.8559 36.0514 16.3533 37.5 20 37.5C23.6467 37.5 27.1441 36.0514 29.7227 33.4727C32.3013 30.8941 33.75 27.3967 33.75 23.75V18.125C33.75 16.9647 33.2891 15.8519 32.4686 15.0314C31.6481 14.2109 30.5353 13.75 29.375 13.75ZM31.25 23.75C31.25 26.7337 30.0647 29.5952 27.955 31.705C25.8452 33.8147 22.9837 35 20 35C17.0163 35 14.1548 33.8147 12.045 31.705C9.93526 29.5952 8.75 26.7337 8.75 23.75V11.875C8.75 11.3777 8.94754 10.9008 9.29917 10.5492C9.65081 10.1976 10.1277 10 10.625 10C11.1223 10 11.5992 10.1976 11.9508 10.5492C12.3025 10.9008 12.5 11.3777 12.5 11.875V18.75C12.5 19.0815 12.6317 19.3995 12.8661 19.6339C13.1005 19.8683 13.4185 20 13.75 20C14.0815 20 14.3995 19.8683 14.6339 19.6339C14.8683 19.3995 15 19.0815 15 18.75V6.87501C15 6.37773 15.1975 5.90081 15.5492 5.54918C15.9008 5.19755 16.3777 5.00001 16.875 5.00001C17.3723 5.00001 17.8492 5.19755 18.2008 5.54918C18.5525 5.90081 18.75 6.37773 18.75 6.87501V17.5C18.75 17.8315 18.8817 18.1495 19.1161 18.3839C19.3505 18.6183 19.6685 18.75 20 18.75C20.3315 18.75 20.6495 18.6183 20.8839 18.3839C21.1183 18.1495 21.25 17.8315 21.25 17.5V9.37501C21.25 8.87773 21.4475 8.40081 21.7992 8.04918C22.1508 7.69755 22.6277 7.50001 23.125 7.50001C23.6223 7.50001 24.0992 7.69755 24.4508 8.04918C24.8025 8.40081 25 8.87773 25 9.37501V20.1047C23.2534 20.4024 21.6683 21.3079 20.5247 22.6611C19.381 24.0144 18.7524 25.7282 18.75 27.5C18.75 27.8315 18.8817 28.1495 19.1161 28.3839C19.3505 28.6183 19.6685 28.75 20 28.75C20.3315 28.75 20.6495 28.6183 20.8839 28.3839C21.1183 28.1495 21.25 27.8315 21.25 27.5C21.25 26.1739 21.7768 24.9022 22.7145 23.9645C23.6521 23.0268 24.9239 22.5 26.25 22.5C26.5815 22.5 26.8995 22.3683 27.1339 22.1339C27.3683 21.8995 27.5 21.5815 27.5 21.25V18.125C27.5 17.6277 27.6975 17.1508 28.0492 16.7992C28.4008 16.4476 28.8777 16.25 29.375 16.25C29.8723 16.25 30.3492 16.4476 30.7008 16.7992C31.0525 17.1508 31.25 17.6277 31.25 18.125V23.75Z" fill="white"/>
</svg>
