<svg width="73" height="74" viewBox="0 0 73 74" fill="none" xmlns="http://www.w3.org/2000/svg">
<path d="M47.4783 36.8485C47.4783 37.4593 47.2401 38.0451 46.8161 38.477C46.3921 38.9089 45.817 39.1515 45.2174 39.1515H27.1304C26.5308 39.1515 25.9558 38.9089 25.5318 38.477C25.1078 38.0451 24.8696 37.4593 24.8696 36.8485C24.8696 36.2377 25.1078 35.6519 25.5318 35.22C25.9558 34.7881 26.5308 34.5454 27.1304 34.5454H45.2174C45.817 34.5454 46.3921 34.7881 46.8161 35.22C47.2401 35.6519 47.4783 36.2377 47.4783 36.8485ZM45.2174 43.7576H27.1304C26.5308 43.7576 25.9558 44.0002 25.5318 44.4321C25.1078 44.864 24.8696 45.4498 24.8696 46.0606C24.8696 46.6714 25.1078 47.2572 25.5318 47.6891C25.9558 48.121 26.5308 48.3636 27.1304 48.3636H45.2174C45.817 48.3636 46.3921 48.121 46.8161 47.6891C47.2401 47.2572 47.4783 46.6714 47.4783 46.0606C47.4783 45.4498 47.2401 44.864 46.8161 44.4321C46.3921 44.0002 45.817 43.7576 45.2174 43.7576ZM61.0435 13.8182V57.5757C61.0435 60.019 60.0907 62.3621 58.3947 64.0897C56.6987 65.8173 54.3985 66.7879 52 66.7879H20.3478C17.9494 66.7879 15.6491 65.8173 13.9531 64.0897C12.2571 62.3621 11.3044 60.019 11.3044 57.5757V13.8182C11.3044 12.5966 11.7807 11.425 12.6287 10.5612C13.4767 9.69739 14.6269 9.21211 15.8261 9.21211H20.3478V6.90908C20.3478 6.29828 20.586 5.71249 21.01 5.28059C21.434 4.84869 22.0091 4.60605 22.6087 4.60605C23.2083 4.60605 23.7834 4.84869 24.2074 5.28059C24.6314 5.71249 24.8696 6.29828 24.8696 6.90908V9.21211H33.913V6.90908C33.913 6.29828 34.1512 5.71249 34.5752 5.28059C34.9992 4.84869 35.5743 4.60605 36.1739 4.60605C36.7735 4.60605 37.3486 4.84869 37.7726 5.28059C38.1966 5.71249 38.4348 6.29828 38.4348 6.90908V9.21211H47.4783V6.90908C47.4783 6.29828 47.7165 5.71249 48.1405 5.28059C48.5645 4.84869 49.1395 4.60605 49.7391 4.60605C50.3388 4.60605 50.9138 4.84869 51.3378 5.28059C51.7618 5.71249 52 6.29828 52 6.90908V9.21211H56.5217C57.721 9.21211 58.8711 9.69739 59.7191 10.5612C60.5671 11.425 61.0435 12.5966 61.0435 13.8182ZM56.5217 13.8182H52V16.1212C52 16.732 51.7618 17.3178 51.3378 17.7497C50.9138 18.1816 50.3388 18.4242 49.7391 18.4242C49.1395 18.4242 48.5645 18.1816 48.1405 17.7497C47.7165 17.3178 47.4783 16.732 47.4783 16.1212V13.8182H38.4348V16.1212C38.4348 16.732 38.1966 17.3178 37.7726 17.7497C37.3486 18.1816 36.7735 18.4242 36.1739 18.4242C35.5743 18.4242 34.9992 18.1816 34.5752 17.7497C34.1512 17.3178 33.913 16.732 33.913 16.1212V13.8182H24.8696V16.1212C24.8696 16.732 24.6314 17.3178 24.2074 17.7497C23.7834 18.1816 23.2083 18.4242 22.6087 18.4242C22.0091 18.4242 21.434 18.1816 21.01 17.7497C20.586 17.3178 20.3478 16.732 20.3478 16.1212V13.8182H15.8261V57.5757C15.8261 58.7973 16.3025 59.9689 17.1505 60.8327C17.9985 61.6965 19.1486 62.1818 20.3478 62.1818H52C53.1992 62.1818 54.3494 61.6965 55.1974 60.8327C56.0453 59.9689 56.5217 58.7973 56.5217 57.5757V13.8182Z" fill="#0284C7"/>
</svg>
