<svg width="100" height="100" viewBox="0 0 100 100" fill="none" xmlns="http://www.w3.org/2000/svg">
<path d="M34.375 37.5C34.375 36.6712 34.7042 35.8763 35.2903 35.2903C35.8763 34.7042 36.6712 34.375 37.5 34.375H62.5C63.3288 34.375 64.1237 34.7042 64.7097 35.2903C65.2958 35.8763 65.625 36.6712 65.625 37.5C65.625 38.3288 65.2958 39.1237 64.7097 39.7097C64.1237 40.2958 63.3288 40.625 62.5 40.625H37.5C36.6712 40.625 35.8763 40.2958 35.2903 39.7097C34.7042 39.1237 34.375 38.3288 34.375 37.5ZM37.5 53.125H62.5C63.3288 53.125 64.1237 52.7958 64.7097 52.2097C65.2958 51.6237 65.625 50.8288 65.625 50C65.625 49.1712 65.2958 48.3763 64.7097 47.7903C64.1237 47.2042 63.3288 46.875 62.5 46.875H37.5C36.6712 46.875 35.8763 47.2042 35.2903 47.7903C34.7042 48.3763 34.375 49.1712 34.375 50C34.375 50.8288 34.7042 51.6237 35.2903 52.2097C35.8763 52.7958 36.6712 53.125 37.5 53.125ZM50 59.375H37.5C36.6712 59.375 35.8763 59.7042 35.2903 60.2903C34.7042 60.8763 34.375 61.6712 34.375 62.5C34.375 63.3288 34.7042 64.1237 35.2903 64.7097C35.8763 65.2958 36.6712 65.625 37.5 65.625H50C50.8288 65.625 51.6237 65.2958 52.2097 64.7097C52.7958 64.1237 53.125 63.3288 53.125 62.5C53.125 61.6712 52.7958 60.8763 52.2097 60.2903C51.6237 59.7042 50.8288 59.375 50 59.375ZM87.5 18.75V61.207C87.5026 62.0281 87.342 62.8415 87.0275 63.5999C86.713 64.3584 86.2509 65.0467 85.668 65.625L65.625 85.668C65.0467 86.2509 64.3584 86.713 63.5999 87.0275C62.8415 87.342 62.0281 87.5026 61.207 87.5H18.75C17.0924 87.5 15.5027 86.8415 14.3306 85.6694C13.1585 84.4973 12.5 82.9076 12.5 81.25V18.75C12.5 17.0924 13.1585 15.5027 14.3306 14.3306C15.5027 13.1585 17.0924 12.5 18.75 12.5H81.25C82.9076 12.5 84.4973 13.1585 85.6694 14.3306C86.8415 15.5027 87.5 17.0924 87.5 18.75ZM18.75 81.25H59.375V62.5C59.375 61.6712 59.7042 60.8763 60.2903 60.2903C60.8763 59.7042 61.6712 59.375 62.5 59.375H81.25V18.75H18.75V81.25ZM65.625 65.625V76.8359L76.832 65.625H65.625Z" fill="#A1A1AA"/>
</svg>
