<svg width="15" height="10" viewBox="0 0 15 10" fill="none" xmlns="http://www.w3.org/2000/svg">
<path d="M14.7996 1.42267L7.98175 9.75507C7.91843 9.83255 7.84324 9.894 7.76047 9.93594C7.6777 9.97787 7.58899 9.99945 7.49939 9.99945C7.40979 9.99945 7.32107 9.97787 7.23831 9.93594C7.15554 9.894 7.08035 9.83255 7.01703 9.75507L0.19919 1.42267C0.0712601 1.26632 -0.000610352 1.05427 -0.000610352 0.833154C-0.000610352 0.612042 0.0712601 0.399986 0.19919 0.243636C0.327121 0.0872866 0.500632 -0.000549316 0.681552 -0.000549316C0.862473 -0.000549316 1.03598 0.0872866 1.16391 0.243636L7.49939 7.98756L13.8349 0.243636C13.8982 0.16622 13.9734 0.10481 14.0562 0.0629122C14.1389 0.0210147 14.2276 -0.000549316 14.3172 -0.000549316C14.4068 -0.000549316 14.4955 0.0210147 14.5783 0.0629122C14.661 0.10481 14.7362 0.16622 14.7996 0.243636C14.8629 0.321053 14.9132 0.41296 14.9475 0.514109C14.9817 0.615259 14.9994 0.723671 14.9994 0.833154C14.9994 0.942638 14.9817 1.05105 14.9475 1.1522C14.9132 1.25335 14.8629 1.34526 14.7996 1.42267Z" fill="#D1D5DB"/>
</svg>
