<svg width="73" height="74" viewBox="0 0 73 74" fill="none" xmlns="http://www.w3.org/2000/svg">
<path d="M36.8261 11.5152C31.4602 11.5152 26.2148 13.136 21.7532 16.1727C17.2916 19.2094 13.8142 23.5257 11.7608 28.5755C9.70737 33.6254 9.1701 39.1822 10.2169 44.5431C11.2638 49.904 13.8477 54.8284 17.642 58.6934C21.4362 62.5584 26.2704 65.1905 31.5332 66.2569C36.796 67.3232 42.251 66.7759 47.2084 64.6842C52.1659 62.5925 56.4031 59.0502 59.3842 54.5055C62.3653 49.9607 63.9565 44.6175 63.9565 39.1515C63.9483 31.8245 61.0873 24.7999 56.0011 19.6189C50.9149 14.4379 44.019 11.5235 36.8261 11.5152ZM36.8261 62.1818C32.3545 62.1818 27.9833 60.8311 24.2653 58.3005C20.5474 55.7699 17.6496 52.1731 15.9384 47.9648C14.2272 43.7566 13.7794 39.126 14.6518 34.6585C15.5242 30.1911 17.6774 26.0875 20.8393 22.8666C24.0012 19.6458 28.0297 17.4524 32.4153 16.5637C36.801 15.6751 41.3468 16.1312 45.478 17.8743C49.6092 19.6174 53.1402 22.5693 55.6245 26.3566C58.1088 30.1439 59.4348 34.5966 59.4348 39.1515C59.428 45.2574 57.0439 51.1113 52.8054 55.4288C48.5669 59.7464 42.8202 62.175 36.8261 62.1818ZM49.73 26.007C49.9402 26.2209 50.1069 26.4749 50.2207 26.7544C50.3345 27.034 50.3931 27.3337 50.3931 27.6364C50.3931 27.939 50.3345 28.2387 50.2207 28.5183C50.1069 28.7979 49.9402 29.0519 49.73 29.2658L38.4256 40.7809C38.2156 40.9949 37.9662 41.1646 37.6917 41.2804C37.4173 41.3962 37.1231 41.4558 36.8261 41.4558C36.529 41.4558 36.2348 41.3962 35.9604 41.2804C35.6859 41.1646 35.4366 40.9949 35.2265 40.7809C35.0164 40.5669 34.8498 40.3129 34.7361 40.0333C34.6224 39.7538 34.5639 39.4541 34.5639 39.1515C34.5639 38.8489 34.6224 38.5493 34.7361 38.2697C34.8498 37.9901 35.0164 37.7361 35.2265 37.5221L46.5308 26.007C46.7408 25.7929 46.9902 25.623 47.2646 25.5071C47.5391 25.3912 47.8333 25.3315 48.1304 25.3315C48.4275 25.3315 48.7217 25.3912 48.9962 25.5071C49.2707 25.623 49.52 25.7929 49.73 26.007ZM27.7826 4.60607C27.7826 3.99527 28.0208 3.40948 28.4448 2.97758C28.8688 2.54568 29.4438 2.30304 30.0435 2.30304H43.6087C44.2083 2.30304 44.7834 2.54568 45.2074 2.97758C45.6313 3.40948 45.8695 3.99527 45.8695 4.60607C45.8695 5.21687 45.6313 5.80266 45.2074 6.23456C44.7834 6.66646 44.2083 6.9091 43.6087 6.9091H30.0435C29.4438 6.9091 28.8688 6.66646 28.4448 6.23456C28.0208 5.80266 27.7826 5.21687 27.7826 4.60607Z" fill="black"/>
</svg>
