<svg width="10" height="7" viewBox="0 0 10 7" fill="none" xmlns="http://www.w3.org/2000/svg">
<path d="M9.86619 0.995706L5.32096 6.82839C5.27875 6.88262 5.22862 6.92564 5.17344 6.95499C5.11827 6.98434 5.05912 6.99945 4.99939 6.99945C4.93966 6.99945 4.88051 6.98434 4.82533 6.95499C4.77016 6.92564 4.72003 6.88262 4.67781 6.82839L0.13259 0.995706C0.0473033 0.886261 -0.000610352 0.737821 -0.000610352 0.583043C-0.000610352 0.428265 0.0473033 0.279825 0.13259 0.170381C0.217877 0.0609358 0.333551 -0.000549316 0.454165 -0.000549316C0.574779 -0.000549316 0.690453 0.0609358 0.775739 0.170381L4.99939 5.59113L9.22304 0.170381C9.26527 0.116189 9.3154 0.073202 9.37058 0.0438737C9.42575 0.0145455 9.48489 -0.000549316 9.54461 -0.000549316C9.60434 -0.000549316 9.66347 0.0145455 9.71865 0.0438737C9.77382 0.073202 9.82396 0.116189 9.86619 0.170381C9.90842 0.224572 9.94192 0.288907 9.96477 0.359712C9.98763 0.430517 9.99939 0.506405 9.99939 0.583043C9.99939 0.659682 9.98763 0.73557 9.96477 0.806374C9.94192 0.877179 9.90842 0.941514 9.86619 0.995706Z" fill="#D1D5DB"/>
</svg>
